<svg width="486" height="328" viewBox="0 0 486 328" fill="none" xmlns="http://www.w3.org/2000/svg">
<rect width="486" height="328" fill="black" fill-opacity="0.6"/>
<rect x="37" y="31" width="412" height="265" stroke="url(#paint0_linear_4453_1249)" stroke-width="4"/>
<ellipse cx="221.213" cy="224.896" rx="16.2133" ry="16.1046" fill="#DCDCDC"/>
<path d="M225.197 226.313H222.326V229.25H219.653V226.313H216.782V223.788H219.653V220.835H222.326V223.788H225.197V226.313Z" fill="black"/>
<ellipse cx="264.787" cy="224.896" rx="16.2133" ry="16.1046" fill="#DCDCDC"/>
<g clip-path="url(#clip0_4453_1249)">
<path d="M265.95 223.74C265.512 223.305 264.918 223.061 264.299 223.061C263.679 223.061 263.085 223.305 262.647 223.74L260.995 225.38C260.557 225.815 260.311 226.406 260.311 227.021C260.311 227.636 260.557 228.227 260.995 228.662C261.433 229.097 262.027 229.341 262.647 229.341C263.266 229.341 263.86 229.097 264.299 228.662L265.124 227.841" stroke="black" stroke-width="1.58333" stroke-linecap="round" stroke-linejoin="round"/>
<path d="M264.299 225.381C264.737 225.816 265.331 226.06 265.95 226.06C266.569 226.06 267.164 225.816 267.602 225.381L269.254 223.74C269.692 223.305 269.938 222.715 269.938 222.1C269.938 221.484 269.692 220.894 269.254 220.459C268.816 220.024 268.221 219.779 267.602 219.779C266.982 219.779 266.388 220.024 265.95 220.459L265.124 221.279" stroke="black" stroke-width="1.58333" stroke-linecap="round" stroke-linejoin="round"/>
</g>
<path d="M89.872 101.98C92.536 101.98 94.864 102.496 96.856 103.528C98.872 104.536 100.42 106 101.5 107.92C102.604 109.816 103.156 112.036 103.156 114.58C103.156 117.124 102.604 119.332 101.5 121.204C100.42 123.076 98.872 124.516 96.856 125.524C94.864 126.508 92.536 127 89.872 127H81.7V101.98H89.872ZM89.872 123.652C92.8 123.652 95.044 122.86 96.604 121.276C98.164 119.692 98.944 117.46 98.944 114.58C98.944 111.676 98.164 109.408 96.604 107.776C95.044 106.144 92.8 105.328 89.872 105.328H85.804V123.652H89.872ZM111.327 105.292V112.636H119.967V115.984H111.327V123.652H121.047V127H107.223V101.944H121.047V105.292H111.327ZM124.734 114.436C124.734 111.988 125.298 109.792 126.426 107.848C127.578 105.904 129.126 104.392 131.07 103.312C133.038 102.208 135.186 101.656 137.514 101.656C140.178 101.656 142.542 102.316 144.606 103.636C146.694 104.932 148.206 106.78 149.142 109.18H144.21C143.562 107.86 142.662 106.876 141.51 106.228C140.358 105.58 139.026 105.256 137.514 105.256C135.858 105.256 134.382 105.628 133.086 106.372C131.79 107.116 130.77 108.184 130.026 109.576C129.306 110.968 128.946 112.588 128.946 114.436C128.946 116.284 129.306 117.904 130.026 119.296C130.77 120.688 131.79 121.768 133.086 122.536C134.382 123.28 135.858 123.652 137.514 123.652C139.026 123.652 140.358 123.328 141.51 122.68C142.662 122.032 143.562 121.048 144.21 119.728H149.142C148.206 122.128 146.694 123.976 144.606 125.272C142.542 126.568 140.178 127.216 137.514 127.216C135.162 127.216 133.014 126.676 131.07 125.596C129.126 124.492 127.578 122.968 126.426 121.024C125.298 119.08 124.734 116.884 124.734 114.436ZM165.358 127.252C163.03 127.252 160.882 126.712 158.914 125.632C156.97 124.528 155.422 123.004 154.27 121.06C153.142 119.092 152.578 116.884 152.578 114.436C152.578 111.988 153.142 109.792 154.27 107.848C155.422 105.904 156.97 104.392 158.914 103.312C160.882 102.208 163.03 101.656 165.358 101.656C167.71 101.656 169.858 102.208 171.802 103.312C173.77 104.392 175.318 105.904 176.446 107.848C177.574 109.792 178.138 111.988 178.138 114.436C178.138 116.884 177.574 119.092 176.446 121.06C175.318 123.004 173.77 124.528 171.802 125.632C169.858 126.712 167.71 127.252 165.358 127.252ZM165.358 123.688C167.014 123.688 168.49 123.316 169.786 122.572C171.082 121.804 172.09 120.724 172.81 119.332C173.554 117.916 173.926 116.284 173.926 114.436C173.926 112.588 173.554 110.968 172.81 109.576C172.09 108.184 171.082 107.116 169.786 106.372C168.49 105.628 167.014 105.256 165.358 105.256C163.702 105.256 162.226 105.628 160.93 106.372C159.634 107.116 158.614 108.184 157.87 109.576C157.15 110.968 156.79 112.588 156.79 114.436C156.79 116.284 157.15 117.916 157.87 119.332C158.614 120.724 159.634 121.804 160.93 122.572C162.226 123.316 163.702 123.688 165.358 123.688ZM202.733 127H198.629L186.281 108.316V127H182.177V101.944H186.281L198.629 120.592V101.944H202.733V127ZM216.366 127.252C214.686 127.252 213.174 126.964 211.83 126.388C210.486 125.788 209.43 124.948 208.662 123.868C207.894 122.788 207.51 121.528 207.51 120.088H211.902C211.998 121.168 212.418 122.056 213.162 122.752C213.93 123.448 214.998 123.796 216.366 123.796C217.782 123.796 218.886 123.46 219.678 122.788C220.47 122.092 220.866 121.204 220.866 120.124C220.866 119.284 220.614 118.6 220.11 118.072C219.63 117.544 219.018 117.136 218.274 116.848C217.554 116.56 216.546 116.248 215.25 115.912C213.618 115.48 212.286 115.048 211.254 114.616C210.246 114.16 209.382 113.464 208.662 112.528C207.942 111.592 207.582 110.344 207.582 108.784C207.582 107.344 207.942 106.084 208.662 105.004C209.382 103.924 210.39 103.096 211.686 102.52C212.982 101.944 214.482 101.656 216.186 101.656C218.61 101.656 220.59 102.268 222.126 103.492C223.686 104.692 224.55 106.348 224.718 108.46H220.182C220.11 107.548 219.678 106.768 218.886 106.12C218.094 105.472 217.05 105.148 215.754 105.148C214.578 105.148 213.618 105.448 212.874 106.048C212.13 106.648 211.758 107.512 211.758 108.64C211.758 109.408 211.986 110.044 212.442 110.548C212.922 111.028 213.522 111.412 214.242 111.7C214.962 111.988 215.946 112.3 217.194 112.636C218.85 113.092 220.194 113.548 221.226 114.004C222.282 114.46 223.17 115.168 223.89 116.128C224.634 117.064 225.006 118.324 225.006 119.908C225.006 121.18 224.658 122.38 223.962 123.508C223.29 124.636 222.294 125.548 220.974 126.244C219.678 126.916 218.142 127.252 216.366 127.252ZM246.012 101.98V105.328H239.352V127H235.248V105.328H228.552V101.98H246.012ZM263.165 127L257.405 116.992H254.273V127H250.169V101.98H258.809C260.729 101.98 262.349 102.316 263.669 102.988C265.013 103.66 266.009 104.56 266.657 105.688C267.329 106.816 267.665 108.076 267.665 109.468C267.665 111.1 267.185 112.588 266.225 113.932C265.289 115.252 263.837 116.152 261.869 116.632L268.061 127H263.165ZM254.273 113.716H258.809C260.345 113.716 261.497 113.332 262.265 112.564C263.057 111.796 263.453 110.764 263.453 109.468C263.453 108.172 263.069 107.164 262.301 106.444C261.533 105.7 260.369 105.328 258.809 105.328H254.273V113.716ZM276.983 101.98V117.928C276.983 119.824 277.475 121.252 278.459 122.212C279.467 123.172 280.859 123.652 282.635 123.652C284.435 123.652 285.827 123.172 286.811 122.212C287.819 121.252 288.323 119.824 288.323 117.928V101.98H292.427V117.856C292.427 119.896 291.983 121.624 291.095 123.04C290.207 124.456 289.019 125.512 287.531 126.208C286.043 126.904 284.399 127.252 282.599 127.252C280.799 127.252 279.155 126.904 277.667 126.208C276.203 125.512 275.039 124.456 274.175 123.04C273.311 121.624 272.879 119.896 272.879 117.856V101.98H276.983ZM296.402 114.436C296.402 111.988 296.966 109.792 298.094 107.848C299.246 105.904 300.794 104.392 302.738 103.312C304.706 102.208 306.854 101.656 309.182 101.656C311.846 101.656 314.21 102.316 316.274 103.636C318.362 104.932 319.874 106.78 320.81 109.18H315.878C315.23 107.86 314.33 106.876 313.178 106.228C312.026 105.58 310.694 105.256 309.182 105.256C307.526 105.256 306.05 105.628 304.754 106.372C303.458 107.116 302.438 108.184 301.694 109.576C300.974 110.968 300.614 112.588 300.614 114.436C300.614 116.284 300.974 117.904 301.694 119.296C302.438 120.688 303.458 121.768 304.754 122.536C306.05 123.28 307.526 123.652 309.182 123.652C310.694 123.652 312.026 123.328 313.178 122.68C314.33 122.032 315.23 121.048 315.878 119.728H320.81C319.874 122.128 318.362 123.976 316.274 125.272C314.21 126.568 311.846 127.216 309.182 127.216C306.83 127.216 304.682 126.676 302.738 125.596C300.794 124.492 299.246 122.968 298.094 121.024C296.966 119.08 296.402 116.884 296.402 114.436ZM341.778 101.98V105.328H335.118V127H331.014V105.328H324.318V101.98H341.778ZM350.038 101.98V127H345.934V101.98H350.038ZM366.839 127.252C364.511 127.252 362.363 126.712 360.395 125.632C358.451 124.528 356.903 123.004 355.751 121.06C354.623 119.092 354.059 116.884 354.059 114.436C354.059 111.988 354.623 109.792 355.751 107.848C356.903 105.904 358.451 104.392 360.395 103.312C362.363 102.208 364.511 101.656 366.839 101.656C369.191 101.656 371.339 102.208 373.283 103.312C375.251 104.392 376.799 105.904 377.927 107.848C379.055 109.792 379.619 111.988 379.619 114.436C379.619 116.884 379.055 119.092 377.927 121.06C376.799 123.004 375.251 124.528 373.283 125.632C371.339 126.712 369.191 127.252 366.839 127.252ZM366.839 123.688C368.495 123.688 369.971 123.316 371.267 122.572C372.563 121.804 373.571 120.724 374.291 119.332C375.035 117.916 375.407 116.284 375.407 114.436C375.407 112.588 375.035 110.968 374.291 109.576C373.571 108.184 372.563 107.116 371.267 106.372C369.971 105.628 368.495 105.256 366.839 105.256C365.183 105.256 363.707 105.628 362.411 106.372C361.115 107.116 360.095 108.184 359.351 109.576C358.631 110.968 358.271 112.588 358.271 114.436C358.271 116.284 358.631 117.916 359.351 119.332C360.095 120.724 361.115 121.804 362.411 122.572C363.707 123.316 365.183 123.688 366.839 123.688ZM404.213 127H400.109L387.761 108.316V127H383.657V101.944H387.761L400.109 120.592V101.944H404.213V127Z" fill="white"/>
<path d="M114.292 164.911C115.66 164.911 116.842 165.169 117.838 165.685C118.846 166.189 119.614 166.915 120.142 167.863C120.682 168.811 120.952 169.927 120.952 171.211C120.952 172.495 120.682 173.611 120.142 174.559C119.614 175.495 118.846 176.215 117.838 176.719C116.842 177.211 115.66 177.457 114.292 177.457H110.386V164.911H114.292ZM114.292 176.107C115.912 176.107 117.148 175.681 118 174.829C118.852 173.965 119.278 172.759 119.278 171.211C119.278 169.651 118.846 168.433 117.982 167.557C117.13 166.681 115.9 166.243 114.292 166.243H112.024V176.107H114.292ZM123.959 165.991C123.647 165.991 123.383 165.883 123.167 165.667C122.951 165.451 122.843 165.187 122.843 164.875C122.843 164.563 122.951 164.299 123.167 164.083C123.383 163.867 123.647 163.759 123.959 163.759C124.259 163.759 124.511 163.867 124.715 164.083C124.931 164.299 125.039 164.563 125.039 164.875C125.039 165.187 124.931 165.451 124.715 165.667C124.511 165.883 124.259 165.991 123.959 165.991ZM124.751 167.593V177.457H123.113V167.593H124.751ZM131.61 167.431C132.462 167.431 133.206 167.617 133.842 167.989C134.49 168.361 134.97 168.829 135.282 169.393V167.593H136.938V177.673C136.938 178.573 136.746 179.371 136.362 180.067C135.978 180.775 135.426 181.327 134.706 181.723C133.998 182.119 133.17 182.317 132.222 182.317C130.926 182.317 129.846 182.011 128.982 181.399C128.118 180.787 127.608 179.953 127.452 178.897H129.072C129.252 179.497 129.624 179.977 130.188 180.337C130.752 180.709 131.43 180.895 132.222 180.895C133.122 180.895 133.854 180.613 134.418 180.049C134.994 179.485 135.282 178.693 135.282 177.673V175.603C134.958 176.179 134.478 176.659 133.842 177.043C133.206 177.427 132.462 177.619 131.61 177.619C130.734 177.619 129.936 177.403 129.216 176.971C128.508 176.539 127.95 175.933 127.542 175.153C127.134 174.373 126.93 173.485 126.93 172.489C126.93 171.481 127.134 170.599 127.542 169.843C127.95 169.075 128.508 168.481 129.216 168.061C129.936 167.641 130.734 167.431 131.61 167.431ZM135.282 172.507C135.282 171.763 135.132 171.115 134.832 170.563C134.532 170.011 134.124 169.591 133.608 169.303C133.104 169.003 132.546 168.853 131.934 168.853C131.322 168.853 130.764 168.997 130.26 169.285C129.756 169.573 129.354 169.993 129.054 170.545C128.754 171.097 128.604 171.745 128.604 172.489C128.604 173.245 128.754 173.905 129.054 174.469C129.354 175.021 129.756 175.447 130.26 175.747C130.764 176.035 131.322 176.179 131.934 176.179C132.546 176.179 133.104 176.035 133.608 175.747C134.124 175.447 134.532 175.021 134.832 174.469C135.132 173.905 135.282 173.251 135.282 172.507ZM140.552 165.991C140.24 165.991 139.976 165.883 139.76 165.667C139.544 165.451 139.436 165.187 139.436 164.875C139.436 164.563 139.544 164.299 139.76 164.083C139.976 163.867 140.24 163.759 140.552 163.759C140.852 163.759 141.104 163.867 141.308 164.083C141.524 164.299 141.632 164.563 141.632 164.875C141.632 165.187 141.524 165.451 141.308 165.667C141.104 165.883 140.852 165.991 140.552 165.991ZM141.344 167.593V177.457H139.706V167.593H141.344ZM146.134 168.943V174.757C146.134 175.237 146.236 175.579 146.44 175.783C146.644 175.975 146.998 176.071 147.502 176.071H148.708V177.457H147.232C146.32 177.457 145.636 177.247 145.18 176.827C144.724 176.407 144.496 175.717 144.496 174.757V168.943H143.218V167.593H144.496V165.109H146.134V167.593H148.708V168.943H146.134ZM150.081 172.489C150.081 171.481 150.285 170.599 150.693 169.843C151.101 169.075 151.659 168.481 152.367 168.061C153.087 167.641 153.885 167.431 154.761 167.431C155.625 167.431 156.375 167.617 157.011 167.989C157.647 168.361 158.121 168.829 158.433 169.393V167.593H160.089V177.457H158.433V175.621C158.109 176.197 157.623 176.677 156.975 177.061C156.339 177.433 155.595 177.619 154.743 177.619C153.867 177.619 153.075 177.403 152.367 176.971C151.659 176.539 151.101 175.933 150.693 175.153C150.285 174.373 150.081 173.485 150.081 172.489ZM158.433 172.507C158.433 171.763 158.283 171.115 157.983 170.563C157.683 170.011 157.275 169.591 156.759 169.303C156.255 169.003 155.697 168.853 155.085 168.853C154.473 168.853 153.915 168.997 153.411 169.285C152.907 169.573 152.505 169.993 152.205 170.545C151.905 171.097 151.755 171.745 151.755 172.489C151.755 173.245 151.905 173.905 152.205 174.469C152.505 175.021 152.907 175.447 153.411 175.747C153.915 176.035 154.473 176.179 155.085 176.179C155.697 176.179 156.255 176.035 156.759 175.747C157.275 175.447 157.683 175.021 157.983 174.469C158.283 173.905 158.433 173.251 158.433 172.507ZM164.495 164.137V177.457H162.857V164.137H164.495ZM180.473 168.583C180.473 169.627 180.113 170.497 179.393 171.193C178.685 171.877 177.599 172.219 176.135 172.219H173.723V177.457H172.085V164.911H176.135C177.551 164.911 178.625 165.253 179.357 165.937C180.101 166.621 180.473 167.503 180.473 168.583ZM176.135 170.869C177.047 170.869 177.719 170.671 178.151 170.275C178.583 169.879 178.799 169.315 178.799 168.583C178.799 167.035 177.911 166.261 176.135 166.261H173.723V170.869H176.135ZM181.897 172.489C181.897 171.481 182.101 170.599 182.509 169.843C182.917 169.075 183.475 168.481 184.183 168.061C184.903 167.641 185.701 167.431 186.577 167.431C187.441 167.431 188.191 167.617 188.827 167.989C189.463 168.361 189.937 168.829 190.249 169.393V167.593H191.905V177.457H190.249V175.621C189.925 176.197 189.439 176.677 188.791 177.061C188.155 177.433 187.411 177.619 186.559 177.619C185.683 177.619 184.891 177.403 184.183 176.971C183.475 176.539 182.917 175.933 182.509 175.153C182.101 174.373 181.897 173.485 181.897 172.489ZM190.249 172.507C190.249 171.763 190.099 171.115 189.799 170.563C189.499 170.011 189.091 169.591 188.575 169.303C188.071 169.003 187.513 168.853 186.901 168.853C186.289 168.853 185.731 168.997 185.227 169.285C184.723 169.573 184.321 169.993 184.021 170.545C183.721 171.097 183.571 171.745 183.571 172.489C183.571 173.245 183.721 173.905 184.021 174.469C184.321 175.021 184.723 175.447 185.227 175.747C185.731 176.035 186.289 176.179 186.901 176.179C187.513 176.179 188.071 176.035 188.575 175.747C189.091 175.447 189.499 175.021 189.799 174.469C190.099 173.905 190.249 173.251 190.249 172.507ZM195.519 165.991C195.207 165.991 194.943 165.883 194.727 165.667C194.511 165.451 194.403 165.187 194.403 164.875C194.403 164.563 194.511 164.299 194.727 164.083C194.943 163.867 195.207 163.759 195.519 163.759C195.819 163.759 196.071 163.867 196.275 164.083C196.491 164.299 196.599 164.563 196.599 164.875C196.599 165.187 196.491 165.451 196.275 165.667C196.071 165.883 195.819 165.991 195.519 165.991ZM196.311 167.593V177.457H194.673V167.593H196.311ZM203.909 167.413C205.109 167.413 206.081 167.779 206.825 168.511C207.569 169.231 207.941 170.275 207.941 171.643V177.457H206.321V171.877C206.321 170.893 206.075 170.143 205.583 169.627C205.091 169.099 204.419 168.835 203.567 168.835C202.703 168.835 202.013 169.105 201.497 169.645C200.993 170.185 200.741 170.971 200.741 172.003V177.457H199.103V167.593H200.741V168.997C201.065 168.493 201.503 168.103 202.055 167.827C202.619 167.551 203.237 167.413 203.909 167.413ZM212.614 168.943V174.757C212.614 175.237 212.716 175.579 212.92 175.783C213.124 175.975 213.478 176.071 213.982 176.071H215.188V177.457H213.712C212.8 177.457 212.116 177.247 211.66 176.827C211.204 176.407 210.976 175.717 210.976 174.757V168.943H209.698V167.593H210.976V165.109H212.614V167.593H215.188V168.943H212.614ZM218.865 175.189L216.849 180.031H215.751L217.065 175.189H218.865ZM233.928 168.583C233.928 169.627 233.568 170.497 232.848 171.193C232.14 171.877 231.054 172.219 229.59 172.219H227.178V177.457H225.54V164.911H229.59C231.006 164.911 232.08 165.253 232.812 165.937C233.556 166.621 233.928 167.503 233.928 168.583ZM229.59 170.869C230.502 170.869 231.174 170.671 231.606 170.275C232.038 169.879 232.254 169.315 232.254 168.583C232.254 167.035 231.366 166.261 229.59 166.261H227.178V170.869H229.59ZM235.352 172.489C235.352 171.481 235.556 170.599 235.964 169.843C236.372 169.075 236.93 168.481 237.638 168.061C238.358 167.641 239.156 167.431 240.032 167.431C240.896 167.431 241.646 167.617 242.282 167.989C242.918 168.361 243.392 168.829 243.704 169.393V167.593H245.36V177.457H243.704V175.621C243.38 176.197 242.894 176.677 242.246 177.061C241.61 177.433 240.866 177.619 240.014 177.619C239.138 177.619 238.346 177.403 237.638 176.971C236.93 176.539 236.372 175.933 235.964 175.153C235.556 174.373 235.352 173.485 235.352 172.489ZM243.704 172.507C243.704 171.763 243.554 171.115 243.254 170.563C242.954 170.011 242.546 169.591 242.03 169.303C241.526 169.003 240.968 168.853 240.356 168.853C239.744 168.853 239.186 168.997 238.682 169.285C238.178 169.573 237.776 169.993 237.476 170.545C237.176 171.097 237.026 171.745 237.026 172.489C237.026 173.245 237.176 173.905 237.476 174.469C237.776 175.021 238.178 175.447 238.682 175.747C239.186 176.035 239.744 176.179 240.356 176.179C240.968 176.179 241.526 176.035 242.03 175.747C242.546 175.447 242.954 175.021 243.254 174.469C243.554 173.905 243.704 173.251 243.704 172.507ZM248.974 165.991C248.662 165.991 248.398 165.883 248.182 165.667C247.966 165.451 247.858 165.187 247.858 164.875C247.858 164.563 247.966 164.299 248.182 164.083C248.398 163.867 248.662 163.759 248.974 163.759C249.274 163.759 249.526 163.867 249.73 164.083C249.946 164.299 250.054 164.563 250.054 164.875C250.054 165.187 249.946 165.451 249.73 165.667C249.526 165.883 249.274 165.991 248.974 165.991ZM249.766 167.593V177.457H248.128V167.593H249.766ZM257.364 167.413C258.564 167.413 259.536 167.779 260.28 168.511C261.024 169.231 261.396 170.275 261.396 171.643V177.457H259.776V171.877C259.776 170.893 259.53 170.143 259.038 169.627C258.546 169.099 257.874 168.835 257.022 168.835C256.158 168.835 255.468 169.105 254.952 169.645C254.448 170.185 254.196 170.971 254.196 172.003V177.457H252.558V167.593H254.196V168.997C254.52 168.493 254.958 168.103 255.51 167.827C256.074 167.551 256.692 167.413 257.364 167.413ZM266.07 168.943V174.757C266.07 175.237 266.172 175.579 266.376 175.783C266.58 175.975 266.934 176.071 267.438 176.071H268.644V177.457H267.168C266.256 177.457 265.572 177.247 265.116 176.827C264.66 176.407 264.432 175.717 264.432 174.757V168.943H263.154V167.593H264.432V165.109H266.07V167.593H268.644V168.943H266.07ZM271.474 165.991C271.162 165.991 270.898 165.883 270.682 165.667C270.466 165.451 270.358 165.187 270.358 164.875C270.358 164.563 270.466 164.299 270.682 164.083C270.898 163.867 271.162 163.759 271.474 163.759C271.774 163.759 272.026 163.867 272.23 164.083C272.446 164.299 272.554 164.563 272.554 164.875C272.554 165.187 272.446 165.451 272.23 165.667C272.026 165.883 271.774 165.991 271.474 165.991ZM272.266 167.593V177.457H270.628V167.593H272.266ZM279.864 167.413C281.064 167.413 282.036 167.779 282.78 168.511C283.524 169.231 283.896 170.275 283.896 171.643V177.457H282.276V171.877C282.276 170.893 282.03 170.143 281.538 169.627C281.046 169.099 280.374 168.835 279.522 168.835C278.658 168.835 277.968 169.105 277.452 169.645C276.948 170.185 276.696 170.971 276.696 172.003V177.457H275.058V167.593H276.696V168.997C277.02 168.493 277.458 168.103 278.01 167.827C278.574 167.551 279.192 167.413 279.864 167.413ZM290.64 167.431C291.492 167.431 292.236 167.617 292.872 167.989C293.52 168.361 294 168.829 294.312 169.393V167.593H295.968V177.673C295.968 178.573 295.776 179.371 295.392 180.067C295.008 180.775 294.456 181.327 293.736 181.723C293.028 182.119 292.2 182.317 291.252 182.317C289.956 182.317 288.876 182.011 288.012 181.399C287.148 180.787 286.638 179.953 286.482 178.897H288.102C288.282 179.497 288.654 179.977 289.218 180.337C289.782 180.709 290.46 180.895 291.252 180.895C292.152 180.895 292.884 180.613 293.448 180.049C294.024 179.485 294.312 178.693 294.312 177.673V175.603C293.988 176.179 293.508 176.659 292.872 177.043C292.236 177.427 291.492 177.619 290.64 177.619C289.764 177.619 288.966 177.403 288.246 176.971C287.538 176.539 286.98 175.933 286.572 175.153C286.164 174.373 285.96 173.485 285.96 172.489C285.96 171.481 286.164 170.599 286.572 169.843C286.98 169.075 287.538 168.481 288.246 168.061C288.966 167.641 289.764 167.431 290.64 167.431ZM294.312 172.507C294.312 171.763 294.162 171.115 293.862 170.563C293.562 170.011 293.154 169.591 292.638 169.303C292.134 169.003 291.576 168.853 290.964 168.853C290.352 168.853 289.794 168.997 289.29 169.285C288.786 169.573 288.384 169.993 288.084 170.545C287.784 171.097 287.634 171.745 287.634 172.489C287.634 173.245 287.784 173.905 288.084 174.469C288.384 175.021 288.786 175.447 289.29 175.747C289.794 176.035 290.352 176.179 290.964 176.179C291.576 176.179 292.134 176.035 292.638 175.747C293.154 175.447 293.562 175.021 293.862 174.469C294.162 173.905 294.312 173.251 294.312 172.507ZM300.428 175.189L298.412 180.031H297.314L298.628 175.189H300.428ZM313.709 177.457L310.721 172.327H308.741V177.457H307.103V164.911H311.153C312.101 164.911 312.899 165.073 313.547 165.397C314.207 165.721 314.699 166.159 315.023 166.711C315.347 167.263 315.509 167.893 315.509 168.601C315.509 169.465 315.257 170.227 314.753 170.887C314.261 171.547 313.517 171.985 312.521 172.201L315.671 177.457H313.709ZM308.741 171.013H311.153C312.041 171.013 312.707 170.797 313.151 170.365C313.595 169.921 313.817 169.333 313.817 168.601C313.817 167.857 313.595 167.281 313.151 166.873C312.719 166.465 312.053 166.261 311.153 166.261H308.741V171.013ZM327.054 172.147C327.054 172.459 327.036 172.789 327 173.137H319.116C319.176 174.109 319.506 174.871 320.106 175.423C320.718 175.963 321.456 176.233 322.32 176.233C323.028 176.233 323.616 176.071 324.084 175.747C324.564 175.411 324.9 174.967 325.092 174.415H326.856C326.592 175.363 326.064 176.137 325.272 176.737C324.48 177.325 323.496 177.619 322.32 177.619C321.384 177.619 320.544 177.409 319.8 176.989C319.068 176.569 318.492 175.975 318.072 175.207C317.652 174.427 317.442 173.527 317.442 172.507C317.442 171.487 317.646 170.593 318.054 169.825C318.462 169.057 319.032 168.469 319.764 168.061C320.508 167.641 321.36 167.431 322.32 167.431C323.256 167.431 324.084 167.635 324.804 168.043C325.524 168.451 326.076 169.015 326.46 169.735C326.856 170.443 327.054 171.247 327.054 172.147ZM325.362 171.805C325.362 171.181 325.224 170.647 324.948 170.203C324.672 169.747 324.294 169.405 323.814 169.177C323.346 168.937 322.824 168.817 322.248 168.817C321.42 168.817 320.712 169.081 320.124 169.609C319.548 170.137 319.218 170.869 319.134 171.805H325.362ZM328.604 172.489C328.604 171.481 328.808 170.599 329.216 169.843C329.624 169.075 330.182 168.481 330.89 168.061C331.61 167.641 332.408 167.431 333.284 167.431C334.148 167.431 334.898 167.617 335.534 167.989C336.17 168.361 336.644 168.829 336.956 169.393V167.593H338.612V177.457H336.956V175.621C336.632 176.197 336.146 176.677 335.498 177.061C334.862 177.433 334.118 177.619 333.266 177.619C332.39 177.619 331.598 177.403 330.89 176.971C330.182 176.539 329.624 175.933 329.216 175.153C328.808 174.373 328.604 173.485 328.604 172.489ZM336.956 172.507C336.956 171.763 336.806 171.115 336.506 170.563C336.206 170.011 335.798 169.591 335.282 169.303C334.778 169.003 334.22 168.853 333.608 168.853C332.996 168.853 332.438 168.997 331.934 169.285C331.43 169.573 331.028 169.993 330.728 170.545C330.428 171.097 330.278 171.745 330.278 172.489C330.278 173.245 330.428 173.905 330.728 174.469C331.028 175.021 331.43 175.447 331.934 175.747C332.438 176.035 332.996 176.179 333.608 176.179C334.22 176.179 334.778 176.035 335.282 175.747C335.798 175.447 336.206 175.021 336.506 174.469C336.806 173.905 336.956 173.251 336.956 172.507ZM343.018 164.137V177.457H341.38V164.137H343.018ZM346.656 165.991C346.344 165.991 346.08 165.883 345.864 165.667C345.648 165.451 345.54 165.187 345.54 164.875C345.54 164.563 345.648 164.299 345.864 164.083C346.08 163.867 346.344 163.759 346.656 163.759C346.956 163.759 347.208 163.867 347.412 164.083C347.628 164.299 347.736 164.563 347.736 164.875C347.736 165.187 347.628 165.451 347.412 165.667C347.208 165.883 346.956 165.991 346.656 165.991ZM347.448 167.593V177.457H345.81V167.593H347.448ZM353.732 177.619C352.976 177.619 352.298 177.493 351.698 177.241C351.098 176.977 350.624 176.617 350.276 176.161C349.928 175.693 349.736 175.159 349.7 174.559H351.392C351.44 175.051 351.668 175.453 352.076 175.765C352.496 176.077 353.042 176.233 353.714 176.233C354.338 176.233 354.83 176.095 355.19 175.819C355.55 175.543 355.73 175.195 355.73 174.775C355.73 174.343 355.538 174.025 355.154 173.821C354.77 173.605 354.176 173.395 353.372 173.191C352.64 172.999 352.04 172.807 351.572 172.615C351.116 172.411 350.72 172.117 350.384 171.733C350.06 171.337 349.898 170.821 349.898 170.185C349.898 169.681 350.048 169.219 350.348 168.799C350.648 168.379 351.074 168.049 351.626 167.809C352.178 167.557 352.808 167.431 353.516 167.431C354.608 167.431 355.49 167.707 356.162 168.259C356.834 168.811 357.194 169.567 357.242 170.527H355.604C355.568 170.011 355.358 169.597 354.974 169.285C354.602 168.973 354.098 168.817 353.462 168.817C352.874 168.817 352.406 168.943 352.058 169.195C351.71 169.447 351.536 169.777 351.536 170.185C351.536 170.509 351.638 170.779 351.842 170.995C352.058 171.199 352.322 171.367 352.634 171.499C352.958 171.619 353.402 171.757 353.966 171.913C354.674 172.105 355.25 172.297 355.694 172.489C356.138 172.669 356.516 172.945 356.828 173.317C357.152 173.689 357.32 174.175 357.332 174.775C357.332 175.315 357.182 175.801 356.882 176.233C356.582 176.665 356.156 177.007 355.604 177.259C355.064 177.499 354.44 177.619 353.732 177.619ZM371.506 167.413C372.274 167.413 372.958 167.575 373.558 167.899C374.158 168.211 374.632 168.685 374.98 169.321C375.328 169.957 375.502 170.731 375.502 171.643V177.457H373.882V171.877C373.882 170.893 373.636 170.143 373.144 169.627C372.664 169.099 372.01 168.835 371.182 168.835C370.33 168.835 369.652 169.111 369.148 169.663C368.644 170.203 368.392 170.989 368.392 172.021V177.457H366.772V171.877C366.772 170.893 366.526 170.143 366.034 169.627C365.554 169.099 364.9 168.835 364.072 168.835C363.22 168.835 362.542 169.111 362.038 169.663C361.534 170.203 361.282 170.989 361.282 172.021V177.457H359.644V167.593H361.282V169.015C361.606 168.499 362.038 168.103 362.578 167.827C363.13 167.551 363.736 167.413 364.396 167.413C365.224 167.413 365.956 167.599 366.592 167.971C367.228 168.343 367.702 168.889 368.014 169.609C368.29 168.913 368.746 168.373 369.382 167.989C370.018 167.605 370.726 167.413 371.506 167.413Z" fill="white"/>
<defs>
<linearGradient id="paint0_linear_4453_1249" x1="35" y1="163.5" x2="436.304" y2="163.5" gradientUnits="userSpaceOnUse">
<stop stop-color="#9104E5"/>
<stop offset="1" stop-color="#F93B96"/>
</linearGradient>
<clipPath id="clip0_4453_1249">
<rect width="12.8356" height="12.7495" fill="white" transform="translate(258.707 218.186)"/>
</clipPath>
</defs>
</svg>
